<svg width="362" height="150" viewBox="0 0 362 150" fill="none" xmlns="http://www.w3.org/2000/svg">
<path d="M7.35 44.9149H49.56V54.3649H19.845V74.8399H44.31L42.735 84.2899H19.845V116H7.35V44.9149ZM69.1195 116.42C65.4095 116.42 62.5745 115.335 60.6145 113.165C58.6545 110.925 57.6745 108.055 57.6745 104.555V63.7099H69.6445V103.505C69.6445 105.115 69.8895 106.2 70.3795 106.76C70.8695 107.32 71.6045 107.6 72.5845 107.6C72.8645 107.6 73.1445 107.6 73.4245 107.6C73.7745 107.6 74.0895 107.565 74.3695 107.495C74.6495 107.495 74.9645 107.46 75.3145 107.39L76.5745 114.95C76.0845 115.23 75.4545 115.475 74.6845 115.685C74.0545 115.895 73.2495 116.07 72.2695 116.21C71.3595 116.35 70.3095 116.42 69.1195 116.42ZM63.8695 40.3999C66.1095 40.3999 67.8245 41.0649 69.0145 42.3949C70.2045 43.7249 70.7995 45.4399 70.7995 47.5399C70.7995 49.6399 70.1695 51.3899 68.9095 52.7899C67.7195 54.1899 65.9345 54.8899 63.5545 54.8899C61.3145 54.8899 59.5645 54.2249 58.3045 52.8949C57.1145 51.4949 56.5195 49.8149 56.5195 47.8549C56.5195 45.6849 57.1145 43.8999 58.3045 42.4999C59.5645 41.0999 61.4195 40.3999 63.8695 40.3999ZM77.6098 116L95.1448 88.2799L79.8148 63.7099H93.6748L100.29 74.5249C100.71 75.2249 101.27 76.3099 101.97 77.7799C102.67 79.2499 103.37 80.7199 104.07 82.1899C104.91 80.9299 105.715 79.6699 106.485 78.4099C107.325 77.1499 108.06 75.9249 108.69 74.7349C110.37 71.6549 111.56 69.0299 112.26 66.8599C113.03 64.6899 113.415 63.6399 113.415 63.7099H125.805C125.805 63.6399 125.385 64.7949 124.545 67.1749C123.705 69.5549 122.235 72.7049 120.135 76.6249C118.945 78.7249 117.58 80.8249 116.04 82.9249C114.5 84.9549 112.995 86.7749 111.525 88.3849L128.535 116H114.885L107.115 102.455L103.02 94.7899L98.9248 102.56L91.0498 116H77.6098Z" fill="white"/>
<path d="M136.349 44.9149H178.559V54.3649H148.844V74.8399H173.309L171.734 84.2899H148.844V116H136.349V44.9149ZM305.275 116.42C301.285 116.42 298.345 115.335 296.455 113.165C294.565 110.925 293.62 108.09 293.62 104.66V41.9749L305.59 39.7699V103.505C305.59 105.115 305.905 106.235 306.535 106.865C307.165 107.495 308.075 107.81 309.265 107.81C309.965 107.81 310.63 107.775 311.26 107.705C311.96 107.635 312.59 107.53 313.15 107.39C313.78 107.25 314.34 107.11 314.83 106.97L316.3 114.53C315.39 114.88 314.375 115.195 313.255 115.475C312.275 115.755 311.12 115.965 309.79 116.105C308.46 116.315 306.955 116.42 305.275 116.42ZM340.136 62.4499C342.166 62.4499 344.161 62.6599 346.121 63.0799C348.081 63.4999 349.831 63.9899 351.371 64.5499C353.191 65.1799 354.871 65.8449 356.411 66.5449L352.841 74.7349C351.441 74.1049 350.041 73.5449 348.641 73.0549C347.451 72.6349 346.121 72.2499 344.651 71.8999C343.251 71.4799 341.851 71.2699 340.451 71.2699C338.841 71.2699 337.441 71.6549 336.251 72.4249C335.131 73.1949 334.571 74.3499 334.571 75.8899C334.571 79.8799 337.476 82.9949 343.286 85.2349C345.456 86.0749 347.416 86.9849 349.166 87.9649C350.916 88.8749 352.386 89.9599 353.576 91.2199C354.836 92.4799 355.781 93.9499 356.411 95.6299C357.041 97.2399 357.356 99.1649 357.356 101.405C357.356 103.365 356.936 105.29 356.096 107.18C355.326 109.07 354.136 110.75 352.526 112.22C350.986 113.69 349.061 114.88 346.751 115.79C344.511 116.63 341.956 117.05 339.086 117.05C336.776 117.05 334.501 116.77 332.261 116.21C330.021 115.72 327.991 115.16 326.171 114.53C324.421 113.9 323.021 113.305 321.971 112.745L320.396 112.01L324.281 103.19L325.646 103.925C326.556 104.485 327.711 105.08 329.111 105.71C330.511 106.34 332.016 106.935 333.626 107.495C335.236 107.985 336.706 108.23 338.036 108.23C340.486 108.23 342.306 107.74 343.496 106.76C344.686 105.78 345.281 104.485 345.281 102.875C345.281 101.055 344.616 99.4099 343.286 97.9399C342.026 96.3999 340.101 95.1399 337.511 94.1599C332.121 92.1299 328.236 89.8199 325.856 87.2299C323.546 84.6399 322.391 81.2799 322.391 77.1499C322.391 75.1899 322.846 73.3349 323.756 71.5849C324.666 69.7649 325.891 68.1899 327.431 66.8599C329.041 65.4599 330.931 64.3749 333.101 63.6049C335.271 62.8349 337.616 62.4499 340.136 62.4499Z" fill="white"/>
<path d="M183.672 94.4511C182.756 89.8515 182.567 85.6781 183.105 81.9307C183.712 78.1696 184.881 74.9031 186.613 72.1313C188.399 69.2771 190.687 66.9656 193.475 65.1967C196.249 63.3591 199.387 62.0915 202.888 61.3939C205.977 60.7784 208.661 60.6362 210.94 60.9673C213.287 61.2847 215.277 61.9588 216.91 62.9896C218.543 64.0204 219.846 65.3667 220.82 67.0285C221.862 68.6767 222.588 70.5305 222.999 72.59C223.491 75.0614 223.276 77.5666 222.355 80.1057C221.42 82.5761 219.819 84.9293 217.552 87.1653C215.34 89.3191 212.517 91.2733 209.084 93.028C205.637 94.7141 201.655 96.0428 197.138 97.0143C197.658 98.5522 198.268 100.001 198.967 101.361C199.722 102.638 200.62 103.744 201.663 104.678C202.76 105.53 204.057 106.128 205.553 106.472C207.049 106.816 208.827 106.783 210.887 106.373C212.397 106.072 213.976 105.579 215.624 104.894C217.272 104.209 218.769 103.482 220.115 102.714C221.721 101.823 223.28 100.87 224.791 99.8554L229.337 106.551C227.73 107.799 225.965 108.972 224.042 110.069C222.381 111.042 220.431 112.002 218.192 112.947C215.954 113.893 213.53 114.626 210.922 115.145C206.94 115.939 203.425 116.032 200.378 115.426C197.317 114.751 194.675 113.493 192.453 111.652C190.23 109.811 188.399 107.428 186.96 104.502C185.521 101.577 184.425 98.2269 183.672 94.4511ZM203.562 69.6107C201.296 70.0621 199.518 70.9875 198.226 72.3868C196.99 73.7038 196.096 75.3093 195.546 77.2034C194.982 79.0289 194.706 81.0467 194.718 83.2569C194.785 85.3849 194.996 87.5197 195.352 89.6616C198.619 88.8677 201.318 87.9018 203.446 86.7639C205.63 85.5437 207.34 84.2751 208.577 82.9581C209.799 81.5724 210.597 80.2002 210.968 78.8413C211.409 77.4688 211.506 76.1647 211.259 74.929C210.863 72.9382 209.965 71.4755 208.565 70.541C207.152 69.5378 205.484 69.2277 203.562 69.6107ZM232.345 84.7532C231.428 80.1536 231.239 75.9801 231.777 72.2327C232.384 68.4717 233.553 65.2052 235.285 62.4334C237.071 59.5792 239.359 57.2677 242.147 55.4988C244.921 53.6612 248.059 52.3936 251.56 51.696C254.65 51.0805 257.334 50.9383 259.612 51.2694C261.959 51.5868 263.95 52.2609 265.582 53.2917C267.215 54.3225 268.519 55.6688 269.492 57.3306C270.534 58.9787 271.26 60.8326 271.671 62.8921C272.163 65.3635 271.949 67.8687 271.027 70.4078C270.092 72.8782 268.491 75.2314 266.224 77.4674C264.012 79.6211 261.19 81.5754 257.756 83.3301C254.309 85.0162 250.327 86.3449 245.81 87.3164C246.331 88.8543 246.94 90.303 247.64 91.6626C248.394 92.9399 249.292 94.0457 250.335 94.9799C251.432 95.8319 252.729 96.43 254.225 96.7743C255.721 97.1185 257.499 97.0855 259.559 96.6751C261.069 96.3742 262.648 95.8811 264.296 95.1959C265.944 94.5107 267.441 93.7842 268.787 93.0164C270.394 92.1252 271.952 91.1722 273.463 90.1574L278.009 96.8532C276.402 98.1013 274.637 99.2738 272.715 100.371C271.053 101.344 269.103 102.304 266.864 103.249C264.626 104.195 262.202 104.928 259.594 105.447C255.612 106.241 252.097 106.334 249.05 105.728C245.989 105.053 243.348 103.795 241.125 101.954C238.902 100.113 237.071 97.7297 235.632 94.8046C234.193 91.8794 233.097 88.529 232.345 84.7532ZM252.234 59.9128C249.968 60.3642 248.19 61.2895 246.899 62.6889C245.662 64.0059 244.769 65.6114 244.218 67.5055C243.654 69.3309 243.378 71.3488 243.39 73.559C243.457 75.6869 243.668 77.8218 244.024 79.9637C247.292 79.1698 249.99 78.2039 252.119 77.066C254.302 75.8458 256.012 74.5771 257.249 73.2601C258.472 71.8745 259.269 70.5022 259.64 69.1434C260.081 67.7709 260.178 66.4668 259.932 65.2311C259.535 63.2403 258.637 61.7776 257.237 60.843C255.824 59.8399 254.156 59.5298 252.234 59.9128Z" fill="#FFA800"/>
<path fill-rule="evenodd" clip-rule="evenodd" d="M285.06 100C272.161 115.694 253.381 126.583 231.6 129.049C209.82 131.515 189.081 125.101 173 112.687C187.799 128.052 209.328 136.602 232.163 134.017C254.998 131.432 274.071 118.284 285.06 100Z" fill="#FFA800"/>
<circle cx="205.999" cy="140" r="8.5" fill="#FFA800" stroke="white" stroke-width="3"/>
<circle cx="262.999" cy="131" r="9.5" fill="#FFA800" stroke="white" stroke-width="3"/>
</svg>
